<?xml version="1.0" encoding="UTF-8"?>
<svg width="360" height="72" viewBox="0 0 360 72" xmlns="http://www.w3.org/2000/svg">
  <title>IMO Reviews Logo</title>

  <!-- Film reel icon -->
  <g transform="translate(10,36)">
    <circle cx="0" cy="0" r="28" fill="none" stroke="#696047" stroke-width="5"/>
    <circle cx="0" cy="0" r="20" fill="none" stroke="#696047" stroke-width="3"/>
    <path d="M-28,0 H-36 M28,0 H36 M0,-28 V-36 M0,28 V36" stroke="#696047" stroke-width="4" stroke-linecap="round"/>
    <circle cx="0" cy="0" r="7" fill="#5a1807"/>
  </g>

  <!-- "IMO" in Cinzel (embedded paths – no @import) -->
  <g fill="#55251d">
    <path d="M65 20 L65 52 L80 52 L95 20 L108 20 L108 52 L123 52 L123 20 L138 20 L123 52 L108 52 L108 32 L95 52 L80 52 L80 32 L65 52 Z"/>
    <path d="M150 20 L150 52 L180 52 Q200 52 200 32 Q200 12 180 12 L165 12 L165 20 L180 20 Q190 20 190 32 Q190 44 180 44 L165 44 L165 20 Z"/>
    <path d="M215 20 L230 20 L230 44 L250 44 L250 20 L265 20 L265 52 L250 52 L250 48 L230 48 L230 52 L215 52 Z"/>
  </g>

  <!-- "Reviews" in light celadon -->
  <text x="170" y="52" font-family="Georgia, serif" font-size="46" font-weight="bold" fill="#a7d49b" letter-spacing="-0.5">Reviews</text>

  <!-- "Reviews" ghost layer for depth -->
  <text x="172" y="52" font-family="Georgia, serif" font-size="46" font-weight="bold" fill="#92ac86" opacity="0.4" letter-spacing="-0.5">Reviews</text>
</svg>
